/* XPM */
static char *result[] = {
/* columns rows colors chars-per-pixel */
"32 32 253 2 ",
"   c #D30206",
".  c #D90003",
"X  c #D50509",
"o  c #D8070C",
"O  c #D9060D",
"+  c #DA080D",
"@  c #D9080E",
"#  c #DB090F",
"$  c #DC080F",
"%  c #DC0A10",
"&  c #DE0B11",
"*  c #DD0C12",
"=  c #DC0D13",
"-  c #DF0E15",
";  c #D6161A",
":  c #DF181F",
">  c #E2050A",
",  c #E2000D",
"<  c #E3020F",
"1  c #E7000C",
"2  c #E6000F",
"3  c #E20B13",
"4  c #E30B15",
"5  c #E20C14",
"6  c #E00E16",
"7  c #E00F16",
"8  c #E20F16",
"9  c #EE0918",
"0  c #E80C18",
"q  c #EE0C1B",
"w  c #F20E16",
"e  c #F1051D",
"r  c #F5051E",
"t  c #F30818",
"y  c #F4091C",
"u  c #F50B1D",
"i  c #E01017",
"p  c #E11018",
"a  c #E01118",
"s  c #E21219",
"d  c #E3121A",
"f  c #E3131A",
"g  c #E4111A",
"h  c #E7111B",
"j  c #E0141A",
"k  c #E0171E",
"l  c #E4141C",
"z  c #E4161D",
"x  c #E5141E",
"c  c #E6141E",
"v  c #E5161E",
"b  c #E5171F",
"n  c #E6171F",
"m  c #E8171F",
"M  c #F6101E",
"N  c #F4161F",
"B  c #FB121C",
"V  c #FE131F",
"C  c #F8161F",
"Z  c #D91E22",
"A  c #DD1C21",
"S  c #F80622",
"D  c #F90026",
"F  c #F80027",
"G  c #F80C21",
"H  c #F90B27",
"J  c #FA052C",
"K  c #EE1121",
"L  c #E81520",
"P  c #E81722",
"I  c #E11920",
"U  c #E51822",
"Y  c #E61823",
"T  c #E51C22",
"R  c #E51E23",
"E  c #E01E24",
"W  c #E31F26",
"Q  c #E51C24",
"!  c #E81821",
"~  c #E91821",
"^  c #EA1922",
"/  c #EA1A23",
"(  c #EC1822",
")  c #E91B25",
"_  c #EA1B24",
"`  c #EC1B26",
"'  c #EB1C26",
"]  c #EC1C26",
"[  c #ED1C27",
"{  c #EE1E28",
"}  c #ED1F2A",
"|  c #EE1F2A",
" . c #F01320",
".. c #F51120",
"X. c #F41021",
"o. c #F71426",
"O. c #F51726",
"+. c #FC1621",
"@. c #F91227",
"#. c #F01821",
"$. c #F21A24",
"%. c #F01B27",
"&. c #F71C25",
"*. c #F11328",
"=. c #F71B2A",
"-. c #F01F2A",
";. c #F11F2B",
":. c #F41E2B",
">. c #F8192B",
",. c #F9182E",
"<. c #FB0E3E",
"1. c #F81533",
"2. c #FA1437",
"3. c #FA1832",
"4. c #FA1F3C",
"5. c #DD2228",
"6. c #DE2228",
"7. c #DB2429",
"8. c #DC262A",
"9. c #DE282C",
"0. c #DF2F34",
"q. c #DB3034",
"w. c #DD353A",
"e. c #DE3C3F",
"r. c #E32127",
"t. c #EF2126",
"y. c #E12528",
"u. c #E1252B",
"i. c #E2272D",
"p. c #E5262D",
"a. c #E7272F",
"s. c #EA222B",
"d. c #EC212B",
"f. c #EA242A",
"g. c #EB252F",
"h. c #EA2A2E",
"j. c #F0202B",
"k. c #F1202B",
"l. c #F02429",
"z. c #F2212C",
"x. c #F1222D",
"c. c #F6212F",
"v. c #F4222E",
"b. c #F4232F",
"n. c #F7232E",
"m. c #F3242F",
"M. c #FF202C",
"N. c #EF2730",
"B. c #E52B32",
"V. c #E62B33",
"C. c #F52431",
"Z. c #F62431",
"A. c #F42732",
"S. c #F72633",
"D. c #F72733",
"F. c #F82231",
"G. c #FA2332",
"H. c #F82430",
"J. c #F92430",
"K. c #F82631",
"L. c #F92436",
"P. c #F22832",
"I. c #F12D32",
"U. c #F32834",
"Y. c #F12B34",
"T. c #F02F35",
"R. c #F02C37",
"E. c #FF273A",
"W. c #FF2D3A",
"Q. c #F92E3C",
"!. c #E13136",
"~. c #E1363B",
"^. c #E2373C",
"/. c #E13A3E",
"(. c #F4363B",
"). c #F5353E",
"_. c #F8313E",
"`. c #FB1644",
"'. c #FB1841",
"]. c #FB2444",
"[. c #FA2B42",
"{. c #FD2845",
"}. c #F93543",
"|. c #FA3442",
" X c #FF3145",
".X c #F43847",
"XX c #FF3847",
"oX c #FF3E4C",
"OX c #FC2951",
"+X c #FA3F51",
"@X c #FC3D60",
"#X c #DE4043",
"$X c #DE484B",
"%X c #DE4A4D",
"&X c #E24245",
"*X c #E14447",
"=X c #EE4040",
"-X c #E14549",
";X c #EB4449",
":X c #F24144",
">X c #F14545",
",X c #F3414E",
"<X c #F2424E",
"1X c #FA414C",
"2X c #F8444E",
"3X c #F14D4A",
"4X c #FF4150",
"5X c #F84451",
"6X c #FB4555",
"7X c #F34951",
"8X c #F44A57",
"9X c #FF4159",
"0X c #F44D58",
"qX c #F44E5D",
"wX c #FB4A58",
"eX c #FC4A59",
"rX c #FC4B5B",
"tX c #FE4C5B",
"yX c #FE4E5F",
"uX c #F65452",
"iX c #F65653",
"pX c #F55C57",
"aX c #FA505E",
"sX c #F95C5B",
"dX c #FF4460",
"fX c #FC4764",
"gX c #FF4765",
"hX c #FD476A",
"jX c #FF4F6C",
"kX c #FC5D60",
"lX c #FD5F62",
"zX c #FF5B65",
"xX c #FC5F76",
"cX c #FF5F78",
"vX c #FD706B",
"bX c #FB756B",
"nX c #FB6775",
"mX c #FF6575",
"MX c #FF687C",
"NX c #FF697D",
"BX c #FD6A7D",
"VX c #FE6E7E",
"CX c #FD7A70",
"ZX c #FE7484",
"AX c #FD778A",
"SX c #FE718D",
"DX c #FE778E",
"FX c #FF7592",
"GX c #FE7D92",
"HX c #FE8798",
"JX c #FE839D",
"KX c #FE899F",
"LX c None",
/* pixels */
"LXLXLXLXLXLXLXLXLXLXLXLXLXLXLXLXLXLXLXLXLXLXLXLXLXLXLXLXLXLXLXLX",
"LXLXLXLXLXLXLXLXLXLXLXLXLXLXLXLXLXLXLXLXLXLXLXLXLXLXLXLXLXLXLXLX",
"LXLXLXLXLXLXLXLXLXLXLXLXLXLXLXLXLXLXLXLXLXLXLXLXLXLXLXLXLXLXLXLX",
"LXLXLXLXLXLXLXLXLXLXLXLXLXLXLXLXLXLXLXLXLXLXLXLXLXLXLXLXLXLXLXLX",
"LXLXLXLXLXLXLXLXLXLXLXLXLXLXLXLXLXLXLXLXLXLXLXLXLXLXLXLXLXLXLXLX",
"LXLXLXLXLXLXLXLXLXLXLXLXLXLXLXLXLXLXLXLXLXLXLXLXLXLXLXLXLXLXLXLX",
"LXLXLXLXLXLXLXLXLXLXLXLXLXLXLXLXLXLXLXLXLXLXLXLXLXLXLXLXLXLXLXLX",
"LXLXLXLXLXLXLXLXLXLX1 R LXLXLXLXLXLXLXLX) ( LXLXLXLXLXLXLXLXLXLX",
"LXLXLXLXLXLXLXLX;XM ..u t 4 6 LXLX8 P W.oX4XXX7XLXLXLXLXLXLXLXLX",
"LXLXLXLXLXLXLX2 +.=XpXiX:XN.V 3 5 M.5XnXAXGXDXNX,XLXLXLXLXLXLXLX",
"LXLXLXLXLXLXLXB T 3XbXCXvXkX2Xn.K.aXZXHXKXJXFXSXMXLXLXLXLXLXLXLX",
"LXLXLXLXLXLXK &.a h.>XuXsXlXzXwXrXmXVXBXxXfX@XhXcX0XLXLXLXLXLXLX",
"LXLXLXLXLXLXA.$.& g L } Y.).1XtXyXeX6X+X[.4.].OXjXqXLXLXLXLXLXLX",
"LXLXLXLXLXLXk.#.% s z ! ` j.b._.|.Q.}.L.,.3.2.`.gX8XLXLXLXLXLXLX",
"LXLXLXLXLXLX[ N # 7 f n / { x.C.D.S.F.>.@.H J <.dX<XLXLXLXLXLXLX",
"LXLXLXLXLXLXLXC + * i l ! ] -.m.Z.c.=.o.G S D '.9XLXLXLXLXLXLXLX",
"LXLXLXLXLXLXLXc $ o * p v ^ { z.v.:.O.X.y r F {..XLXLXLXLXLXLXLX",
"LXLXLXLXLXLXLXm w   @ = 6 b _ | ;.%. .q 9 e 1. XR.LXLXLXLXLXLXLX",
"LXLXLXLXLXLXLXLXd > X O A i.Q s.d.' ~ h 0 *.E.U.LXLXLXLXLXLXLXLX",
"LXLXLXLXLXLXLXLXLX- . ; 8.6.u.B.V.p.W I Y G.H.LXLXLXLXLXLXLXLXLX",
"LXLXLXLXLXLXLXLXLXLXj y.Z 7.0.~.^.!.9.5.P.J.LXLXLXLXLXLXLXLXLXLX",
"LXLXLXLXLXLXLXLXLXLXLXk f.q.e.*X-X#Xw.T.g.LXLXLXLXLXLXLXLXLXLXLX",
"LXLXLXLXLXLXLXLXLXLXLXLXr.I./.$X%X&X(.a.LXLXLXLXLXLXLXLXLXLXLXLX",
"LXLXLXLXLXLXLXLXLXLXLXLXLXx : t.l.E U LXLXLXLXLXLXLXLXLXLXLXLXLX",
"LXLXLXLXLXLXLXLXLXLXLXLXLXLXLX< , LXLXLXLXLXLXLXLXLXLXLXLXLXLXLX",
"LXLXLXLXLXLXLXLXLXLXLXLXLXLXLXLXLXLXLXLXLXLXLXLXLXLXLXLXLXLXLXLX",
"LXLXLXLXLXLXLXLXLXLXLXLXLXLXLXLXLXLXLXLXLXLXLXLXLXLXLXLXLXLXLXLX",
"LXLXLXLXLXLXLXLXLXLXLXLXLXLXLXLXLXLXLXLXLXLXLXLXLXLXLXLXLXLXLXLX",
"LXLXLXLXLXLXLXLXLXLXLXLXLXLXLXLXLXLXLXLXLXLXLXLXLXLXLXLXLXLXLXLX",
"LXLXLXLXLXLXLXLXLXLXLXLXLXLXLXLXLXLXLXLXLXLXLXLXLXLXLXLXLXLXLXLX",
"LXLXLXLXLXLXLXLXLXLXLXLXLXLXLXLXLXLXLXLXLXLXLXLXLXLXLXLXLXLXLXLX",
"LXLXLXLXLXLXLXLXLXLXLXLXLXLXLXLXLXLXLXLXLXLXLXLXLXLXLXLXLXLXLXLX"
};
