/* XPM */
static char *_8fb21600f7a4ff3cf1d3a7a11a619b3CNEFQZSAOhNfg3SL[] = {
/* columns rows colors chars-per-pixel */
"32 32 37 1 ",
"  c gray77",
". c #C8C8C8",
"X c gray79",
"o c #CBCBCB",
"O c gray80",
"+ c #CDCDCD",
"@ c #CECECE",
"# c gray86",
"$ c #DDDDDD",
"% c #E1E1E1",
"& c #E2E2E2",
"* c #E6E6E6",
"= c #E7E7E7",
"- c gray91",
"; c #E9E9E9",
": c #EAEAEA",
"> c gray92",
", c #ECECEC",
"< c gray93",
"1 c #EEEEEE",
"2 c #EFEFEF",
"3 c gray94",
"4 c #F1F1F1",
"5 c gray95",
"6 c #F3F3F3",
"7 c #F4F4F4",
"8 c gray96",
"9 c #F6F6F6",
"0 c gray97",
"q c #F8F8F8",
"w c #F9F9F9",
"e c gray98",
"r c #FBFBFB",
"t c gray99",
"y c #FDFDFD",
"u c #FEFEFE",
"i c white",
/* pixels */
"8888888888q8q888q8q888q88888qq88",
"888qqqqqq8q8qqq8q8qqq8q8qqq88q8q",
"q888888q88888888888888884888488q",
"8888888888888888888888888q88888q",
"88qqq8qq8qqqqqqqqq8qqq8qqq8qqq88",
"8q884<<<<<<<<<<<<<<<<<<<<<<488q8",
"8884>>><><<><<<<<<<><<<<<<<<<<8q",
"888848iiiiiiiiiqiiiiiiiiiiiq<>8i",
"88q8<iiiiiiiiiiiiiiiiiiiiiiq=<q8",
"q888>iiiiiiiiiiiiiiiiiiiiiii=4q8",
"q8q8<iiiiiiiiiiiiiiiiiiiiiiq=4q8",
"q888<iqiiiiiiiiiiiiiiiiiiiqi=4q8",
"q8q8>iiiiiiiiiiiiiiiiiiiqiii=<q8",
"q888<iiqiiiiiiiiiiiiiiiiiiiq=<q8",
"qqq8>iiiiiiiiiiiiiiiiiiiiiii=4q8",
"8888<iiiiiiiiiiiiiiiiiiiiiiq=4q8",
"q888<iiiiiiiiiiiiiiiiiiiiiiq=488",
"q8q8<iqiiiiiiiiiiiiiiiiiiiii=<q8",
"8888>iiiiiiiiiiiiiiiiiiiiiii=4q8",
"qqq4<iiqiiiiiiiiiiiiiiiiqiiq=4q8",
"88q8<iiiiiiiiiiiiiiiiiiiiiii=<q8",
"q888>iiiiiiiiiiiiiiiiiiiqiiq=<q8",
"q8q8<iiiiiiiiiiiiiiiiiiiiiii=4q8",
"q888<iqiiiiiiiiiiiiiiiiiiiiq=4q8",
"8q4<4iiiiiiiqiiiiiiqiqiii8ii%<q8",
"8q848qiqiiiiiiiiiiiiiiiiiiiq$>q8",
"4884>>><<>>>>>>>>>>>>>>><<=%#8q4",
"qq8>$@ @.@.@.@.@@.@@.@@@ ..@%qi8",
"848iq88iqqqqqqqqqqqqqqqq8iiqq448",
"q888q8488q8q88q8888qq8q88888i48i",
"8488qqqq88q8q888q8q8q888q44<q884",
"qqq88888q8q8qqqq88q888q888i8q8q4"
};
