/* XPM */
static char *_248ce5d836d4af884f72fdb05cb3dda9te3mXFTLNargzAx[] = {
/* columns rows colors chars-per-pixel */
"32 32 179 2 ",
"   c None",
".  c black",
"X  c #26081C",
"o  c #2D121B",
"O  c #241C25",
"+  c #2D222B",
"@  c #3B2428",
"#  c #21243E",
"$  c #362835",
"%  c #4F0007",
"&  c #421C18",
"*  c #422226",
"=  c #4C2827",
"-  c #5B2B29",
";  c #412236",
":  c #583331",
">  c #6C322C",
",  c #722D3B",
"<  c #743A35",
"1  c #6C4238",
"2  c #754B3E",
"3  c #3A3346",
"4  c #493842",
"5  c #553545",
"6  c #683940",
"7  c #7B3742",
"8  c #2E4859",
"9  c #0D6F7E",
"0  c #564B5B",
"q  c #6D4C42",
"w  c #7C464D",
"e  c #744D5D",
"r  c #7A5558",
"t  c #59576E",
"y  c #42537A",
"u  c #5A5E79",
"i  c #675768",
"p  c #725B60",
"a  c #5A637B",
"s  c #656574",
"d  c #7F6276",
"f  c #9C583A",
"g  c #803B4C",
"h  c #963C49",
"j  c #8B4A49",
"k  c #8E5A47",
"l  c #9B5F4E",
"z  c #98594A",
"x  c #8B5D56",
"c  c #845E5C",
"v  c #955C51",
"b  c #A15944",
"n  c #B65E43",
"m  c #B35E5C",
"M  c #8D6355",
"N  c #986155",
"B  c #A3604E",
"V  c #A46859",
"C  c #B36B57",
"Z  c #AF735F",
"A  c #BE785C",
"S  c #AA5B6D",
"D  c #866A6E",
"F  c #886663",
"G  c #9B7366",
"H  c #97607A",
"J  c #8B747B",
"K  c #9C797A",
"L  c #AC6A65",
"P  c #B86261",
"I  c #A2796A",
"U  c #B87464",
"Y  c #A37C7B",
"T  c #A17C76",
"R  c #B27D7D",
"E  c #CA5E4D",
"W  c #C1775A",
"Q  c #C56C6D",
"!  c #C77766",
"~  c #B4836F",
"^  c #B78676",
"/  c #BB907C",
"(  c #C88B7A",
")  c #D88A76",
"_  c #D49076",
"`  c #F39672",
"'  c #2C5584",
"]  c #335E8F",
"[  c #2B7190",
"{  c #5B7585",
"}  c #547B90",
"|  c #487699",
" . c #6B7784",
".. c #737487",
"X. c #6A7897",
"o. c #9B7C94",
"O. c #877786",
"+. c #6E8B99",
"@. c #5395AC",
"#. c #7B8DAD",
"$. c #71A1AF",
"%. c #94898B",
"&. c #9C8588",
"*. c #908F9D",
"=. c #A38384",
"-. c #AC8B8E",
";. c #BC8F83",
":. c #B48580",
">. c #BE988C",
",. c #B28B91",
"<. c #B29394",
"1. c #B9999A",
"2. c #9A99A6",
"3. c #8497B3",
"4. c #9993B2",
"5. c #8A99A4",
"6. c #A697A8",
"7. c #B39BAC",
"8. c #8DA8B8",
"9. c #9CA7B5",
"0. c #A6A2AC",
"q. c #BBAEB5",
"w. c #ADB8B9",
"e. c #C58385",
"r. c #C99C83",
"t. c #C8988C",
"y. c #D9968E",
"u. c #C18790",
"i. c #DA9993",
"p. c #C89697",
"a. c #EC8C82",
"s. c #EA9B8D",
"d. c #F7998F",
"f. c #D7A58B",
"g. c #C1A492",
"h. c #C1B29B",
"j. c #FBA780",
"k. c #ECB18D",
"l. c #E4A898",
"z. c #E3B49D",
"x. c #FBBF9C",
"c. c #F8B896",
"v. c #CBABAB",
"b. c #C9A5A6",
"n. c #D3AAA6",
"m. c #DFB8A4",
"M. c #C4BAB0",
"N. c #DAB1B0",
"B. c #E4A5A8",
"V. c #F1A6AB",
"C. c #E9B8A4",
"Z. c #E6BCB6",
"A. c #D6C2BB",
"S. c #FFCBA5",
"D. c #FACEAC",
"F. c #FFD1A9",
"G. c #E2C5B4",
"H. c #F9D7B6",
"J. c #FFE6BD",
"K. c #99ACC7",
"L. c #ADADCD",
"P. c #B5ADC5",
"I. c #A8B8CD",
"U. c #BCDBD4",
"Y. c #ACCAE0",
"T. c #B3C9E0",
"R. c #DECBC6",
"E. c #D2DCD3",
"W. c #F2DEC5",
"Q. c #E0DED5",
"!. c #E9D0C8",
"~. c #EDE1C2",
"^. c #FFEAC5",
"/. c #FCEECF",
"(. c #FDE2C6",
"). c #FFFCDC",
"_. c #DDDAE4",
"`. c #C5E4FA",
"'. c #F4F4F3",
/* pixels */
"                                                                ",
"                                                                ",
"                          R.e.Q N.'.'.Z.y.                      ",
"                        Y._.Q e.N.v.v.n.) d.                    ",
"                      8.`.6.&.&.Y ;.t.;.>.C.!.                  ",
"                    #.Y.I.5 i e x I ^ r.f.t./                   ",
"                    3.T.s t 0 : : : q k / T l./                 ",
"                  X.K.9.X 3 @ @ o = % z ~.h.l ~                 ",
"                  u I...: c v l M Z ( F.^._ % M                 ",
"                  a K.3 F ^ x p M _ x.H.F._ > &                 ",
"                    2.4 T <...O s _ x.F.g.%.q                   ",
"                    e.r =.b.9.9 5.C.J.H.8 w.                    ",
"                  ,.t.-.<.p.i.G.J.J.D./.U.Q.                    ",
"                  i o.&.T R E ` F.D.k./.).H.                    ",
"                  . # 3 o c V C ( U _ k.c.`                     ",
"                      0 @ +   j f B A W b Z                     ",
"                      $ =     ; < <     o 2                     ",
"                          ..J j D G (     1                     ",
"                          0.F j 1.f.H.m.                        ",
"                        7.Y - J A.z.(.G.                        ",
"                      L.7.f s q.!.C.^.).                        ",
"                    P.6.^ v *.Z.A.%.q.E.                        ",
"                    o.H L N y 6.5.[ @.8.                        ",
"                      , j < ' ] +.{ +.$.                        ",
"                            ] | { 8 { +.                        ",
"                            D O.  w D                           ",
"                            L n   C !                           ",
"                            u.i.  S B.                          ",
"                            V.a.  g P i.                        ",
"                          4.B.s.  e 7 h l.                      ",
"                                                                ",
"                                                                "
};
