/* XPM */
static char *ac73f64517174309f74b0e99b17f8c5b5v2rPICHAra7uwEh[] = {
/* columns rows colors chars-per-pixel */
"32 32 246 2 ",
"   c #6E7876",
".  c #E60102",
"X  c #EB0205",
"o  c #E60009",
"O  c #F50002",
"+  c #F90004",
"@  c #E81B05",
"#  c #FC1400",
"$  c #E90015",
"%  c #F70015",
"&  c #F2001C",
"*  c #EE1B17",
"=  c #F31817",
"-  c #E72903",
";  c #F82B00",
":  c #EC3604",
">  c #FB3500",
",  c #F53B00",
"<  c #F83803",
"1  c #E42715",
"2  c #F32A16",
"3  c #EE3419",
"4  c #F83718",
"5  c #D61130",
"6  c #E90023",
"7  c #F20023",
"8  c #FA0024",
"9  c #F3022A",
"0  c #F70136",
"q  c #EF1231",
"w  c #D02837",
"e  c #D93535",
"r  c #E72425",
"t  c #F82728",
"y  c #EC352A",
"u  c #F33727",
"i  c #EA2C35",
"p  c #F92733",
"a  c #ED3534",
"s  c #F53B35",
"d  c #BD5B0A",
"f  c #B56806",
"g  c #B0710A",
"h  c #B8652C",
"j  c #C9520A",
"k  c #CA5715",
"l  c #FB4400",
"z  c #FD4608",
"x  c #F04D14",
"c  c #CE6811",
"v  c #E87014",
"b  c #F57714",
"n  c #F64227",
"m  c #EC5028",
"M  c #F6423B",
"N  c #C7662F",
"B  c #D76E27",
"V  c #DC7829",
"C  c #FA6827",
"Z  c #FA7B2B",
"A  c #AA1E72",
"S  c #922D7D",
"D  c #AF3965",
"F  c #B4326C",
"G  c #FF0041",
"H  c #CD324E",
"J  c #F03148",
"K  c #C71E6C",
"L  c #D0366B",
"P  c #A45E57",
"I  c #996240",
"U  c #E1414E",
"Y  c #F74844",
"T  c #DB774C",
"R  c #D6436A",
"E  c #D44B75",
"W  c #42BE2C",
"Q  c #62BC24",
"!  c #37D006",
"~  c #0BD625",
"^  c #28CD2A",
"/  c #39C928",
"(  c #3BD428",
")  c #2DCF32",
"_  c #3ACA34",
"`  c #39E53C",
"'  c #47D200",
"]  c #5AE800",
"[  c #57E80E",
"{  c #67EB08",
"}  c #51CC2A",
"|  c #42D427",
" . c #49D835",
".. c #58DE3A",
"X. c #74D62B",
"o. c #79CE38",
"O. c #69DD37",
"+. c #74D63A",
"@. c #48E53B",
"#. c #51EF30",
"$. c #55E439",
"%. c #5BE33C",
"&. c #6AF02F",
"*. c #66EC3B",
"=. c #65F13B",
"-. c #139A73",
";. c #389C7B",
":. c #19AF62",
">. c #30AA71",
",. c #6A9C62",
"<. c #51D153",
"1. c #6ADE43",
"2. c #4AE648",
"3. c #5BE341",
"4. c #57E846",
"5. c #58F546",
"6. c #52F154",
"7. c #64E644",
"8. c #65EA43",
"9. c #6AEB48",
"0. c #6DEF4D",
"q. c #63DC6B",
"w. c #A58A07",
"e. c #B4901A",
"r. c #9CA21F",
"t. c #9A9423",
"y. c #B19229",
"u. c #B2AD31",
"i. c #D09216",
"p. c #F0951E",
"a. c #CDA91E",
"s. c #F2AB0A",
"d. c #F58C2A",
"f. c #F79229",
"g. c #F7B12E",
"h. c #82D11E",
"j. c #A9C81A",
"k. c #98D52E",
"l. c #AAD52B",
"z. c #94E43D",
"x. c #A4EA3B",
"c. c #D6CF0E",
"v. c #EECF00",
"b. c #ECD300",
"n. c #ECDA0D",
"m. c #F5DB03",
"M. c #F1CC13",
"N. c #EDD718",
"B. c #F6D41A",
"V. c #F6E30D",
"C. c #D5D22E",
"Z. c #D7D73A",
"A. c #F5C829",
"S. c #EBD526",
"D. c #F3D525",
"F. c #F9D627",
"G. c #F3C730",
"H. c #EBDA36",
"J. c #F6DA37",
"K. c #FBDD3D",
"L. c #DBE239",
"P. c #F9E626",
"I. c #EAE23B",
"U. c #F9E638",
"Y. c #FBE43C",
"T. c #A99873",
"R. c #AAA571",
"E. c #CC965E",
"W. c #CAB14E",
"Q. c #FDBC4B",
"!. c #C5B771",
"~. c #85EC42",
"^. c #A3ED48",
"/. c #CFC84A",
"(. c #EFCF47",
"). c #F6DC43",
"_. c #E9E344",
"`. c #FAE443",
"'. c #F8E647",
"]. c #FBEA4A",
"[. c #FBEE4E",
"{. c #CBC47C",
"}. c #3C5AB7",
"|. c #0071B3",
" X c #2C7AAF",
".X c #737294",
"XX c #6648AB",
"oX c #4564BF",
"OX c #6776A8",
"+X c #757DAA",
"@X c #003ACC",
"#X c #213FD0",
"$X c #0043C9",
"%X c #004CCA",
"&X c #164CCF",
"*X c #0357CE",
"=X c #0459D8",
"-X c #1A57D5",
";X c #294CC7",
":X c #2955CB",
">X c #355ACA",
",X c #2F55D3",
"<X c #0165D9",
"1X c #1665D3",
"2X c #3464CC",
"3X c #2865DA",
"4X c #3965DB",
"5X c #035BE3",
"6X c #005BE9",
"7X c #1254E5",
"8X c #0059F8",
"9X c #2646E6",
"0X c #285CE7",
"qX c #355FF7",
"wX c #0566E5",
"eX c #006BEB",
"rX c #1B6AEC",
"tX c #0171EC",
"yX c #006BF5",
"uX c #0077F9",
"iX c #2A6AE8",
"pX c #396BE2",
"aX c #3773E9",
"sX c #2C6FF4",
"dX c #536FD5",
"fX c #677ED0",
"gX c #4C73E7",
"hX c #953787",
"jX c #A83B83",
"kX c #934E91",
"lX c #AE4C9B",
"zX c #9756BD",
"xX c #B052AA",
"cX c #967DBF",
"vX c #C15792",
"bX c #8D58C3",
"nX c #9E6DCE",
"mX c #379390",
"MX c #5C96A4",
"NX c #48B4A4",
"BX c #4DC786",
"VX c #268DC8",
"CX c #3886C8",
"ZX c #7B8BCA",
"AX c #6182E6",
"SX c #D1D084",
/* pixels */
"Z.L.Z./.(./.O.o.*.c % = C J.(.m.cX,XdXdXpX4XrXU l % i.=.+.*.<.<.",
"Y.`.U.U.`.L.%...2.V % = m J.).m.ZX=X0X7X5X3X5XH < & y.` $.$.#.$.",
"B.B.B.B.J.c.} | ^ g X o x G.G.b.+X@X;X;X&X&X=Xw - . w.~ ! / / / ",
"Y.`.].Y.].Z.9.*.5.V % 2 C [.'.V.ZXyXiXsX8XiXyXH l 8 a.6.9.9.*.*.",
"B.B.D.g.g.c.Q W ) g X o x C.C.c..X#X}.}.}.}.}.5 - $ e.| } } / } ",
"A.J.p.q z R <X2XwXD ; q B $.O. .c . . v H.H.H.x 2 o d._.I.Z.<X3X",
").`.C 0 z L tXdXeXL > J B @...2.B t & Z Y.J.).n u $ d.'.P.H.<X4X",
"B.F.d.6 3 H ;X;X%XF - 6 j | / ) j . . v F.B.A.2 @ $ p.H.b.W.%X2X",
").].C G l E uXgXuXE , 0 V 5.8.4.V t 7 Z '.`.'.x 4 8 f.[.Y._.iXaX",
"g.(.C i u e ,X;X*XD l u c W W ) k X o b F.B.S.e H 5 V g.s.W.%X>X",
"s s u a 4 R wX4X6X{.N.J.!.5X4X5XH < 6 d.Y.K.m.dX-X<XlX+ q q <XpX",
"M Y s s < R uXgXyX{.V.P.!.6XgXyXL < 7 Z Y.J.n.AXgXeXxX- y e <XpX",
"a s y y y H :X:X$XR.m.n.W.$X;X%XH ; $ v F.B.M.oX:X*XjX- @ H *X>X",
"M Y M M > E uXaX8XSXP.P.SX8XgXyXL > 0 d.].].P.aXrXuXxX# p i eXsX",
"a s 1 w H D 1X>X@XT.s.g.E.|. X|.I j j i.F.F.M.XXXXXXS c d h OXMX",
"s > zX<XpX1X4X2XyXK + 9 c [ [ { 3.1.` l.).U.U., : O r.2.3.~.B.F.",
"M l nXtXgXpXpX4XeXE , 9 B 4.%.4.....@.z.`.J.J.n y 9 u.3...z.H._.",
"J > lX<XdX:X,X>X*XF - & k ( ( | | } ^ k.D.B.A.3 1 o t.^ _ o.S.S.",
"M z nXuXsX5XqXiXuXL # 0 V 6.4.8.5.5.6.^.'.`.'.n y 8 u.&.=.z._.'.",
"M 4 vXOX+XOXMX+XMXP f d w.X.h.h.r.t.r.e.p.p.p.d g f ,.>.-.,.b.S.",
"y 0 g.n.D.b.N.n.m.x.3.4.9.H.I._.x & & & & 7 & +.<.] NX9X<XgXV.`.",
"M J Q.].].Y.].I.).^.3.1.z.U.U.Y.C * u 4 3 3 1 +.3.] NX0X=XZXm.H.",
"M 0 d.D.D.N.D.S.S.k.) | X.S.N.N.v o 1 1 r r r Q _ ' mX&X%XfXb.H.",
"a 0 Q.[.[.].U.U.U.x.=.9.~.[.].[.C 7 t 2 > , O 1.6.] NXqXrXgXP.'.",
"h N u.l.l.j.R.T.T.,.>.mX,.l.l.j.w.g g I S S S t.y.w..X@X@XOXv.S.",
" .7...2.*.<.6X=XwX5X0X7XVX] 2.$.` ` ] NX8XwXyX0 0 + lXyX0XdXH.`.",
"1.0.1.7.*.<.iX4X3XiX3X7XCX&...%.$.4.] q.9X,X-Xe y ; kXwX*XfXb.J.",
"/  .|  . ./ 1X;X:X:X-X0X X' ( ( ( _ ! >.#X:X*Xw r @ hX=X;XdXv.J.",
"9.0.9.9.*.q.uXeXtXrXiXsXCX{ 0.5.=.=.{ BX8XwXyXa s ; lXyX6XgXU.).",
"^ ( ( ( | / kXS S   -.:.:.! ^ ! :.;.-.,.A F K X = X T !.E.E.l m ",
"$.4.7.8.9.1., : X u.#.[ #.=.5.] 2X9X6XzX; 2 ; u u 9 g.P.P.F.8 u ",
"4.9.%.7.7.O.m y 0 u.` $.@.#.2.] VXqXyXbX# p t 2 2 % f.J.J.g.O 3 "
};
